<?xml version="1.0" encoding="UTF-8" standalone="no"?>
<svg
   id="logo1"
   width="960"
   height="372"
   viewBox="0 0 960 372"
   version="1.1"
   sodipodi:docname="logo-960x372-full-color.svg"
   inkscape:version="1.1.1 (3bf5ae0d25, 2021-09-20)"
   xmlns:inkscape="http://www.inkscape.org/namespaces/inkscape"
   xmlns:sodipodi="http://sodipodi.sourceforge.net/DTD/sodipodi-0.dtd"
   xmlns="http://www.w3.org/2000/svg"
   xmlns:svg="http://www.w3.org/2000/svg">
  <sodipodi:namedview
     id="namedview10"
     pagecolor="#ffffff"
     bordercolor="#666666"
     borderopacity="1.0"
     inkscape:pageshadow="2"
     inkscape:pageopacity="0.0"
     inkscape:pagecheckerboard="true"
     showgrid="false"
     inkscape:zoom="1.296875"
     inkscape:cx="480"
     inkscape:cy="185.83133"
     inkscape:window-width="1920"
     inkscape:window-height="1011"
     inkscape:window-x="0"
     inkscape:window-y="0"
     inkscape:window-maximized="1"
     inkscape:current-layer="logo1" />
  <defs
     id="defs4">
    <style
       id="style2">
      .cls-1 {
        fill: #063481;
      }

      .cls-1, .cls-2 {
        fill-rule: evenodd;
      }

      .cls-2 {
        fill: #6e96cf;
      }
    </style>
  </defs>
  <path
     id="Ubi"
     class="cls-1"
     d="M480.665,9.638V144.985q0,48.058,24.846,72.9t66.366,24.847q26.8,0,47.894-10.789t33.02-32.856q11.929-22.067,11.932-54.106V9.638H618.954V144.985q0,27.14-11.933,40.7t-34.163,13.568q-22.558,0-34.491-13.568t-11.933-40.7V9.638H480.665ZM834.07,121.447q18.306-4.245,29.587-17.981t11.279-35.308q0-27.783-18.8-43.154T802.358,9.638h-97.1V240.447H804.32q36.94,0,56.395-16.836t19.452-45.933q0-20.919-12.587-36.452t-33.51-19.779h0ZM751.358,46.581h40.866q18.3,0,27.134,7.846t8.827,22.231q0,14.39-8.99,22.067t-26.317,7.683h-41.52V46.581Zm43.808,156.27H751.358V139.427h43.481q18.306,0,28.279,8.337t9.971,23.7q0,15.37-9.807,23.375t-28.116,8.01h0ZM912.528,9.638V240.447h46.1V9.638h-46.1Z" />
  <path
     id="coach"
     class="cls-2"
     d="M525.437,295.983A37.235,37.235,0,0,0,507,300.46a31.549,31.549,0,0,0-12.576,12.906,45.073,45.073,0,0,0,0,39.441A31.616,31.616,0,0,0,507,365.646a37.214,37.214,0,0,0,18.437,4.478q13.827,0,22.914-7.309T559.545,343H546.9a18.737,18.737,0,0,1-7.178,12.247q-5.861,4.479-14.551,4.477a23.27,23.27,0,0,1-11.523-2.9,21.055,21.055,0,0,1-8.363-8.889q-3.161-5.991-3.16-14.815t3.16-14.815a21.079,21.079,0,0,1,8.363-8.889,23.291,23.291,0,0,1,11.523-2.9q8.691,0,14.551,4.411a18.5,18.5,0,0,1,7.178,12.182h12.642a31.251,31.251,0,0,0-11.194-19.754q-9.087-7.374-22.914-7.374h0Zm98.371,0a38.357,38.357,0,0,0-18.634,4.477A32.48,32.48,0,0,0,592.2,313.366a43.385,43.385,0,0,0,0,39.441,32.559,32.559,0,0,0,12.972,12.839,41.009,41.009,0,0,0,37.268,0,32.135,32.135,0,0,0,12.9-12.839,43.931,43.931,0,0,0,0-39.441,32.06,32.06,0,0,0-12.9-12.906,38.373,38.373,0,0,0-18.634-4.477h0Zm0,10.535a25.075,25.075,0,0,1,11.918,2.9,21.8,21.8,0,0,1,8.823,8.889q3.359,5.994,3.358,14.815,0,8.691-3.358,14.683a21.783,21.783,0,0,1-8.823,8.89,25.963,25.963,0,0,1-23.836,0,21.765,21.765,0,0,1-8.823-8.89q-3.359-5.99-3.359-14.683,0-8.822,3.359-14.815a21.78,21.78,0,0,1,8.823-8.889,25.061,25.061,0,0,1,11.918-2.9h0Zm97.317-10.535a32.782,32.782,0,0,0-17.12,4.477,30.887,30.887,0,0,0-11.786,12.906,47.572,47.572,0,0,0,0,39.441,30.94,30.94,0,0,0,11.786,12.839,32.764,32.764,0,0,0,17.12,4.478q10.534,0,17.844-5.268a27.444,27.444,0,0,0,10.206-14.091V369.2h11.984V296.9H749.175v18.437a27.464,27.464,0,0,0-10.206-14.091q-7.308-5.265-17.844-5.267h0Zm3.424,10.666a24.992,24.992,0,0,1,12.708,3.227,22.4,22.4,0,0,1,8.758,9.284,29.745,29.745,0,0,1,3.16,13.959,29.345,29.345,0,0,1-3.16,13.893,22.9,22.9,0,0,1-8.758,9.284,24.58,24.58,0,0,1-12.708,3.293q-11.062,0-17.712-7.046t-6.651-19.424q0-12.377,6.651-19.424t17.712-7.046h0Zm103.508-10.666a37.232,37.232,0,0,0-18.437,4.477,31.549,31.549,0,0,0-12.576,12.906,45.073,45.073,0,0,0,0,39.441,31.616,31.616,0,0,0,12.576,12.839,37.211,37.211,0,0,0,18.437,4.478q13.827,0,22.914-7.309T862.164,343H849.522a18.731,18.731,0,0,1-7.177,12.247q-5.861,4.479-14.552,4.477a23.266,23.266,0,0,1-11.522-2.9,21.043,21.043,0,0,1-8.363-8.889q-3.16-5.991-3.16-14.815t3.16-14.815a21.066,21.066,0,0,1,8.363-8.889,23.287,23.287,0,0,1,11.522-2.9q8.692,0,14.552,4.411a18.494,18.494,0,0,1,7.177,12.182h12.642a31.245,31.245,0,0,0-11.193-19.754q-9.087-7.374-22.914-7.374h0Zm103.638-.264a28.437,28.437,0,0,0-16.264,4.741,24.636,24.636,0,0,0-9.811,13.564V271.752H893.637V369.2H905.62V330.88q0-12.246,5.926-18.634t15.8-6.387q9.481,0,15.013,5.8t5.531,16.593V369.2h11.984V327.193q0-15.274-7.77-23.375t-20.412-8.1h0Z" />
  <path
     id="Color_Fill_1"
     data-name="Color Fill 1"
     class="cls-1"
     d="M379.708,257.16a44.476,44.476,0,0,1-1.575,7.423c-1.414,5.15-1.908,10.31-3.374,15.072-1.057,3.431-1.364,6.579-2.475,9.9-5.686,16.994-12.62,32.85-29.693,38.467-4.378,1.44-13.774,1.767-18.67.449a35.992,35.992,0,0,0-6.074-1.574c-1.061,4.041-5.64,9.5-7.873,12.822-8.615,12.822-20.349,24.447-36.442,29.693l-7.2,1.575a24.021,24.021,0,0,1-8.548,0c-3.422-.754-6.1-0.512-9-1.575-5.243-1.924-9.255-4.851-13.272-7.873-2.215-1.667-5-3.773-6.3-6.3a0.779,0.779,0,0,0-.45.225c-1.713.434-3.321,1.842-4.723,2.7a87.541,87.541,0,0,1-10.573,4.949c-8.345,3.627-17.564,4.848-27.444,7.2l-6.523.45c-3.373.73-11.251,1.034-14.847,0.225h-3.824c-2.61-.594-5.571-0.234-8.323-0.9-10.152-2.458-19.168-3.814-27.894-7.423-7.525-3.113-14.757-5.635-21.37-9.673-7.42-4.532-14.5-9.348-21.37-14.4-2.891-2.123-5.428-4.786-8.323-6.973l-2.025-2.25a73.8,73.8,0,0,1-12.6-12.822c-2.7-3.579-6.314-6.7-9-10.347-5.1-6.938-9.713-13.93-14.4-21.37a206.621,206.621,0,0,1-14.4-26.094c-3.966-8.989-7.805-18.252-11.022-27.894C8.18,225.033,6.854,219,5.169,213.07c-1.885-6.63-1.978-13.74-3.6-20.695l-0.45-7.423c-0.733-3.37-1.033-13.515-.225-17.1v-3.6c1.026-4.534.618-9.348,1.8-13.722,3.418-12.653,7.5-23.771,16.871-30.368,3.414-2.4,7.249-3.7,11.472-5.4a54.078,54.078,0,0,1,2.024-9.448c1.253-4.39,1.68-8.782,2.924-12.822,1.3-4.216,1.793-8.093,3.149-12.147C44.147,65.37,51.157,50.964,65.23,45.034c9-3.793,18.828-1.716,27.669.225a16.735,16.735,0,0,1,2.474-4.5c2.1-3.4,4.06-6.554,6.3-9.673,8.882-12.373,19.961-23.4,35.991-28.568,18.161-5.85,37.2,3.89,44.09,14.4,4.9-2.684,9.948-5.549,15.3-7.873,5.329-2.316,11.252-3.736,17.1-5.4l13.5-2.25,5.623-.225a50.318,50.318,0,0,1,14.4,0h3.374l13.047,1.8c5.655,1.473,11.285,2.479,16.646,4.274,5.263,1.761,10.484,4.174,15.3,6.3,31.5,13.9,53.926,36.927,72.658,63.66a223.774,223.774,0,0,1,21.595,37.567c3.792,8.6,6.968,17.463,10.348,26.544,3.078,8.27,4.432,17.366,6.748,26.318,0.869,3.359.817,6.9,1.575,10.123,0.721,3.067.235,6.3,0.9,9.223v4.049a44.951,44.951,0,0,1,0,13.047V207.9l-1.35,11.248c-2.145,8.517-4.027,16.258-8.1,22.719-0.806,1.279-2.043,2.418-2.924,3.6C393.914,250.244,386.865,256.194,379.708,257.16ZM146.886,18.04c-0.626.392-1.665,0.21-2.474,0.45l-6.074,2.025c-5.363,2.337-9.334,6.357-13.722,9.673a10.6,10.6,0,0,0-1.8,2.249c-1.329,1.759-3.395,3.155-4.724,4.949-2.278,3.074-4.212,6.135-6.3,9.448C102.209,62.048,97,81.318,91.549,100.821c-1.852,6.626-2.258,13.638-3.824,20.47-0.949,4.14-.471,8.54-1.35,12.6v3.374c-0.762,3.547-1.034,14.033-.225,17.771v4.274c0.4,2.687.058,5.722,0.675,8.548,1.52,6.965,2.137,14.3,3.6,20.921,1.066,4.824-3.727,8.646-6.973,9.447a8.124,8.124,0,0,1-7.423-2.249c-4.713-4.572-4.36-17.226-6.074-24.969q-0.225-3.6-.45-7.2c-0.491-2.326.108-5.193-.45-7.873a54.418,54.418,0,0,1,0-15.3v-4.274a60.058,60.058,0,0,1,.675-6.524l0.225-4.5,2.474-16.871c4.271-16.658,7.3-32.883,13.5-47.464a27.394,27.394,0,0,1-4.274-.9,16.959,16.959,0,0,0-11.7,2.025c-7.648,4.719-10.593,13.851-13.947,22.945-4.244,11.506-6.173,25.042-9.223,37.792l-0.9,11.022v4.949c-0.488,2.288-.225,5.651-0.225,8.323,0,4.6-.418,9.707.45,13.722l0.45,8.323,2.025,14.4c1.52,6.053,2.86,12.435,4.274,18.221a8.911,8.911,0,0,1-3.149,8.773,11.54,11.54,0,0,1-2.7,1.349,9.555,9.555,0,0,1-5.174-.225c-6.465-2.41-5.778-7.417-7.648-14.171-1.7-6.144-2.319-13.2-3.824-19.8-0.6-2.65-.36-5.4-0.9-7.873l-0.9-13.947v-5.624l0.225-15.071h-0.45c-1.155,1.817-2.9,3.326-4.049,5.174-1.688,2.719-2.782,6.238-3.824,9.448-2.118,6.521-2.7,15.326-2.7,23.619,0,3.958-.3,8.343.45,11.7l0.225,4.949,2.249,14.4c1.457,5.368,2.3,10.958,4.049,16.2,2.675,8.012,5.563,16.05,8.773,23.4,19.628,44.9,48.079,81.731,93.354,101,6.433,2.738,13.572,4.685,20.92,6.748l11.472,1.8h2.475c3.466,0.744,9.8,1.05,13.5.225,3.19-.713,6.409.057,9.448-0.675,6.076-1.464,12.1-2.245,17.546-4.274a100.241,100.241,0,0,0,22.494-11.248c3.584-2.51,6.867-5.467,10.348-8.1a50.12,50.12,0,0,0,9-9.448q1.463-1.461,2.924-2.924c2.068-2.754,4.237-5.645,6.074-8.548,9.113-14.4,15.328-30.451,21.145-48.364,2.577-7.933,2.958-16.586,4.949-25.194l0.45-6.748c0.5-2.324-.121-5.2.45-7.874a41.619,41.619,0,0,0-.225-13.047v-2.924l-1.8-12.372c-4.19-14.928-8.816-27.753-20.47-35.092-4.306-2.712-9.162-3.4-15.072-4.724-3.683-.824-8.822.234-11.247,1.125-2.688.987-6.156,1.682-7.648,3.824-4.69,6.728-5.413,16.672-7.649,25.869-0.617,2.541-.279,4.657-0.9,7.2-1.571,6.435-2.139,13.361-4.5,19.121C205.5,221.8,198.326,230.52,186.252,235.79c-5.559,2.426-15.916,6.158-24.519,3.824-27.519-7.465-39.3-28.191-47.014-55.562-1.417-5.03-1.277-10.476-2.475-15.747l-0.225-5.848a30.8,30.8,0,0,1-.225-9.673l0.225-10.8c1.6-7.075,1.1-14.643,2.925-21.37,1.238-4.563,1.891-9.412,3.374-13.946,2.417-7.392,4.929-14.858,7.873-21.6,2.557-5.852,4.669-11.6,7.873-16.871,6.594-10.84,13.729-20.7,21.145-30.593a82.734,82.734,0,0,1,7.649-8.323c1.124-1.124,3.022-2.228,3.6-3.824-1.187-.776-2.023-2.109-3.149-2.924C158.932,19.372,154.61,18.091,146.886,18.04Zm87.055,0c-1.39.8-4.929,0.244-6.748,0.675-5.058,1.2-10.144,1.582-14.847,3.149A113.194,113.194,0,0,0,180.4,38.51c-18.275,13.418-29.422,34.654-38.692,57.137-2.451,5.945-3.833,12.443-5.848,18.671-2.493,7.7-2.6,16.2-4.5,24.519l-0.45,7.873c-1.023,4.795-.8,16.1.225,20.7l0.225,4.274q1.012,5.622,2.024,11.247c5.294,18.685,12.351,31.657,31.718,36.442a20.363,20.363,0,0,0,7.648.225l4.724-.225c3.247-.837,6.954-2.115,9.223-4.049,1.783-1.521,2.413-4.861,3.374-7.2,2.642-6.426,3.352-14.52,5.174-22.045l0.9-6.973c1.551-6.045,2.27-12.355,4.5-17.771,5.058-12.295,13.066-20.394,25.194-25.644,4.67-2.022,14.756-5.223,22.27-3.374,24.869,6.117,38.17,24.6,45.889,47.914,1.569,4.736,2.132,9.868,3.375,14.846l0.45,4.724c1.01,4.484,1.109,9.743,1.124,15.072a20.5,20.5,0,0,1,0,4.274c-0.8,3.648.271,7.781-.45,11.022-0.818,3.68-.063,7.041-0.9,10.573-1.327,5.6-1.594,11.414-3.15,16.871-4.916,17.243-10.03,33.644-18.445,47.464-6.142,10.084-12.887,19.317-19.8,28.568a85.761,85.761,0,0,1-7.873,8.773c-1.237,1.239-3.417,2.53-4.049,4.274,1.022,0.677,1.752,1.773,2.7,2.475a29.058,29.058,0,0,0,9,4.5c4,1.178,9.5.229,12.6-.9,8.827-3.214,15.987-8.227,21.145-15.072,0.952-1.262,2.431-2.315,3.375-3.6,4.5-6.13,9.186-12.971,12.372-20.245,6.477-14.792,10.206-30.92,14.846-47.689,2.028-7.327,1.9-15.255,3.6-22.945,0.607-2.754.116-5.734,0.674-8.323v-4.724a40,40,0,0,0,0-13.047l-0.225-7.873c-1.352-6.276-1.249-13.114-2.7-18.9-1.881-7.5-2.077-14.4,5.174-16.421a8.305,8.305,0,0,1,7.873,2.25c4.457,4.4,4.2,15.637,5.849,22.944l0.45,6.3c0.37,1.734.293,4.3,0.674,6.073v4.5c0.628,3.009.651,12.526,0,15.522-0.3,1.393.018,3.385-.224,4.5v3.374l-1.35,12.822c-0.753,3.227-.715,6.76-1.575,10.123-2.309,9.034-3.467,18.207-6.3,26.769-1.611,4.868-2.914,9.972-4.724,14.846-0.805,2.168-2.092,4.5-2.475,6.974l0.225,0.224c5.458,0.382,10.391,1.977,15.072-.9,8.359-5.138,11.71-15.226,15.071-25.419a179.861,179.861,0,0,0,9.673-57.812c0-6.449.546-13.493-.675-19.121l-0.225-4.949c-0.851-3.852-.641-7.993-1.574-11.922-1.5-6.315-2.513-13-4.274-18.9-1.105-3.7-.174-7.923,1.8-9.9,3.7-3.7,10.916-2.6,13.5,1.349,1.593,2.436,1.549,5.885,2.475,9,2.008,6.76,2.6,14.5,4.274,21.82,0.6,2.65.36,5.4,0.9,7.874l0.9,13.946v5.624l-0.225,15.072h0.225c0.9-1.395,2.448-2.437,3.374-3.825,2.21-3.308,3.623-7.585,4.949-11.7,1.2-3.722,1.128-7.993,2.025-11.922l0.225-5.624a46.882,46.882,0,0,0,0-13.5v-3.6L391.18,173.7c-0.819-3.329-1.052-6.942-2.024-10.348-2.54-8.895-4.8-17.881-8.1-25.869-2.675-6.471-4.917-12.477-7.648-18.67a67.486,67.486,0,0,0-4.049-7.424c-1.438-2.359-2.173-4.863-3.6-7.2-3.545-5.8-7.189-11.638-11.023-17.1-18.01-25.639-39.525-46.867-69.958-60.061-7.314-3.171-15.3-5.054-23.62-7.2C253.154,17.775,243.752,18.067,233.941,18.04Z" />
</svg>
