<?xml version="1.0" encoding="UTF-8" standalone="no"?>
<!-- Created with Inkscape (http://www.inkscape.org/) -->

<svg
   width="500"
   height="500"
   viewBox="0 0 132.29166 132.29167"
   version="1.1"
   id="svg160"
   inkscape:version="1.1.1 (3bf5ae0d25, 2021-09-20)"
   sodipodi:docname="logo-500x500-full color.svg"
   xmlns:inkscape="http://www.inkscape.org/namespaces/inkscape"
   xmlns:sodipodi="http://sodipodi.sourceforge.net/DTD/sodipodi-0.dtd"
   xmlns="http://www.w3.org/2000/svg"
   xmlns:svg="http://www.w3.org/2000/svg">
  <sodipodi:namedview
     id="namedview162"
     pagecolor="#ffffff"
     bordercolor="#666666"
     borderopacity="1.0"
     inkscape:pageshadow="2"
     inkscape:pageopacity="0.0"
     inkscape:pagecheckerboard="true"
     inkscape:document-units="mm"
     showgrid="false"
     units="px"
     inkscape:zoom="0.69664703"
     inkscape:cx="396.90114"
     inkscape:cy="331.58829"
     inkscape:window-width="1920"
     inkscape:window-height="1011"
     inkscape:window-x="0"
     inkscape:window-y="0"
     inkscape:window-maximized="1"
     inkscape:current-layer="layer1" />
  <defs
     id="defs157" />
  <g
     inkscape:label="Layer 1"
     inkscape:groupmode="layer"
     id="layer1">
    <path
       id="Color_Fill_1"
       data-name="Color Fill 1"
       class="cls-1"
       d="m 120.04051,88.179951 a 13.650383,13.650383 0 0 1 -0.4826,2.275416 c -0.43365,1.578504 -0.58499,3.160182 -1.03426,4.619892 -0.32385,1.05172 -0.41804,2.01639 -0.75856,3.03371 -1.74281,5.208851 -3.8682,10.069251 -9.10166,11.790631 -1.34197,0.44159 -4.22196,0.54186 -5.72294,0.13785 -0.58552,-0.15875 -1.22211,-0.42678 -1.86161,-0.4826 -0.32517,1.23877 -1.728791,2.91041 -2.413261,3.93012 -2.64081,3.93038 -6.23729,7.49352 -11.170182,9.10166 l -2.20636,0.4826 a 7.3509187,7.3509187 0 0 1 -2.619375,0 c -1.048808,-0.23071 -1.870075,-0.1569 -2.758017,-0.4826 -1.607079,-0.58949 -2.836597,-1.48696 -4.067968,-2.41326 -0.679186,-0.51091 -1.534584,-1.1565 -1.931459,-1.93146 a 0.23547916,0.23547916 0 0 0 -0.138112,0.0691 c -0.525198,0.13229 -1.017852,0.56462 -1.4478,0.82735 -0.983985,0.6014 -2.185458,1.05833 -3.240881,1.51685 -2.557727,1.11125 -5.383742,1.48617 -8.411898,2.20636 l -1.999721,0.13812 c -1.033727,0.22383 -3.448314,0.3175 -4.550833,0.0688 h -1.172369 c -0.799835,-0.18177 -1.707356,-0.0714 -2.551112,-0.2757 -3.111765,-0.75353 -5.875338,-1.16919 -8.550011,-2.27541 -2.306637,-0.95409 -4.524375,-1.7272 -6.550289,-2.96492 -2.275417,-1.38907 -4.443148,-2.86544 -6.55029,-4.41299 -0.886354,-0.65088 -1.6637,-1.46685 -2.551377,-2.1373 q -0.310091,-0.34396 -0.620448,-0.68951 a 22.643041,22.643041 0 0 1 -3.861329,-3.93038 c -0.828675,-1.09697 -1.935162,-2.05317 -2.758016,-3.17156 -1.564482,-2.12672 -2.977357,-4.269851 -4.412986,-6.550561 -1.569773,-2.49396 -3.180821,-5.206204 -4.412722,-7.998352 -1.2152307,-2.755371 -2.3910387,-5.593556 -3.3784637,-8.549746 -0.59399,-1.780381 -1.00039,-3.630612 -1.516856,-5.447242 -0.57785,-2.032264 -0.606425,-4.211637 -1.103313,-6.343385 q -0.06879,-1.137708 -0.137848,-2.275417 c -0.224631,-1.031875 -0.3175,-4.142581 -0.06879,-5.240337 v -1.103312 c 0.314325,-1.389857 0.189441,-2.865438 0.551391,-4.206875 1.04775,-3.878263 2.297907,-7.286096 5.171546,-9.308307 1.0464277,-0.736335 2.2225007,-1.135062 3.5163137,-1.654704 a 16.60181,16.60181 0 0 1 0.620712,-2.896129 c 0.384175,-1.345406 0.515144,-2.691871 0.896408,-3.930121 0.396875,-1.292225 0.54954,-2.480997 0.9652,-3.723481 1.535907,-4.591579 3.684588,-9.007475 7.998354,-10.825162 2.758811,-1.162579 5.771092,-0.525992 8.480954,0.06906 0.138642,-0.535252 0.498475,-0.958585 0.758561,-1.379008 0.64426,-1.041665 1.243541,-2.008981 1.931458,-2.964921 2.722563,-3.792537 6.11849,-7.174177 11.033125,-8.757708 5.566569,-1.7930804 11.403542,1.192477 13.514387,4.412985 1.501775,-0.822589 3.049323,-1.700742 4.688682,-2.413264 1.633802,-0.709877 3.449108,-1.145117 5.240337,-1.654705 l 4.137025,-0.6895037 1.72376,-0.06906 c 0.961232,-0.207169 3.454929,-0.2159 4.412986,0 h 1.034256 l 3.999177,0.5516557 c 1.733285,0.451379 3.459162,0.760148 5.102489,1.309952 1.613959,0.540015 3.213364,1.279525 4.688684,1.931459 9.657291,4.261908 16.529311,11.318874 22.271031,19.513285 a 68.587937,68.587937 0 0 1 6.61935,11.514931 c 1.16205,2.634985 2.13598,5.352521 3.17182,8.136202 0.94351,2.534973 1.35864,5.323152 2.06852,8.067146 0.26643,1.029493 0.25029,2.114285 0.4826,3.102768 0.22092,0.940065 0.0722,1.931459 0.27596,2.827073 v 1.241161 a 13.779764,13.779764 0 0 1 0,3.999177 v 1.172104 q -0.20664,1.723496 -0.41381,3.447521 c -0.65723,2.610643 -1.23428,4.983691 -2.48232,6.964097 -0.24686,0.391848 -0.62601,0.740834 -0.89615,1.103313 -1.09378,1.46685 -3.25516,3.290623 -5.44909,3.586692 z M 48.676036,14.884812 c -0.192088,0.120121 -0.510381,0.06429 -0.758561,0.137848 l -1.861608,0.620448 c -1.643856,0.716227 -2.861204,1.948656 -4.206875,2.96492 a 3.2652229,3.2652229 0 0 0 -0.551656,0.689505 c -0.407194,0.53922 -1.040342,0.967052 -1.4478,1.516856 -0.6985,0.942181 -1.291167,1.880658 -1.931458,2.895864 -2.938198,4.663546 -4.534429,10.570104 -6.205538,16.5481 -0.567796,2.031206 -0.692414,4.180417 -1.172369,6.274594 -0.291041,1.27 -0.144462,2.617787 -0.413543,3.861329 v 1.034256 c -0.233627,1.087173 -0.3175,4.301331 -0.06906,5.446977 v 1.310217 c 0.123825,0.823648 0.01773,1.753923 0.206905,2.619375 0.465931,2.134923 0.654843,4.384146 1.103312,6.412441 0.326761,1.478757 -1.142735,2.650332 -2.137569,2.895865 A 2.4907875,2.4907875 0 0 1 26.9548,69.423903 c -1.444625,-1.402292 -1.336411,-5.280025 -1.861609,-7.653602 q -0.06906,-1.103048 -0.137847,-2.206361 c -0.150548,-0.714375 0.03307,-1.591733 -0.138113,-2.413264 -0.216165,-1.038225 -0.22516,-3.653367 0,-4.688681 v -1.310217 a 18.391981,18.391981 0 0 1 0.206904,-1.999456 l 0.06906,-1.379008 q 0.379148,-2.585509 0.758296,-5.171282 c 1.309159,-5.106458 2.239169,-10.080625 4.13729,-14.548908 a 8.3981395,8.3981395 0 0 1 -1.310217,-0.275696 5.1980041,5.1980041 0 0 0 -3.585369,0.620448 c -2.344208,1.446477 -3.246966,4.245769 -4.275137,7.033154 -1.300692,3.526896 -1.892035,7.675827 -2.826808,11.583723 q -0.138113,1.6891 -0.275961,3.378729 v 1.516856 c -0.149754,0.701411 -0.06879,1.732228 -0.06879,2.551113 0,1.410758 -0.128323,2.97524 0.137848,4.206875 q 0.06906,1.275556 0.137847,2.551112 0.310357,2.206361 0.620448,4.412986 c 0.465932,1.855258 0.876565,3.811587 1.310217,5.585089 a 2.7307645,2.7307645 0 0 1 -0.965465,2.688961 3.529277,3.529277 0 0 1 -0.827352,0.413808 2.9281437,2.9281437 0 0 1 -1.585912,-0.06906 C 14.492399,73.512509 14.703272,71.977661 14.12992,69.907297 13.608426,68.024522 13.418984,65.860759 12.957815,63.839607 12.772607,63.027336 12.84722,62.18358 12.681855,61.426343 Q 12.544272,59.289038 12.406159,57.15147 v -1.723761 q 0.03466,-2.309812 0.06879,-4.619889 h -0.137848 c -0.353748,0.557212 -0.889529,1.019704 -1.24116,1.585912 -0.517261,0.833438 -0.852489,1.912409 -1.1721057,2.896129 -0.649287,1.998927 -0.826823,4.697677 -0.827352,7.239794 0,1.213115 -0.09234,2.557198 0.137848,3.585369 l 0.06906,1.517121 q 0.343959,2.206095 0.689505,4.41272 c 0.4463517,1.645444 0.7048507,3.360209 1.2411607,4.964642 0.820208,2.455598 1.704975,4.919398 2.68896,7.170208 6.016625,13.764154 14.737292,25.052335 28.614688,30.959165 1.971675,0.83925 4.160043,1.43615 6.412441,2.06851 l 3.516577,0.55165 h 0.758561 c 1.062302,0.22808 3.004872,0.322 4.137025,0.0688 0.977635,-0.21828 1.964531,0.0177 2.895864,-0.20664 1.862667,-0.44979 3.707606,-0.68792 5.378185,-1.31022 2.483115,-0.92445 4.871244,-2.02935 6.895307,-3.44752 1.098285,-0.76941 2.104495,-1.67587 3.17156,-2.48232 a 15.361973,15.361973 0 0 0 2.760927,-2.89481 l 0.896408,-0.89641 c 0.635,-0.84428 1.298575,-1.73011 1.861873,-2.61937 2.793206,-4.414307 4.698206,-9.333971 6.482292,-14.824341 0.789781,-2.43205 0.906727,-5.084233 1.516856,-7.722658 l 0.138113,-2.068513 c 0.153987,-0.712258 -0.03731,-1.593585 0.137847,-2.413264 0.209815,-0.982927 0.141553,-3.059377 -0.06906,-3.999177 v -0.896409 l -0.551656,-3.792273 c -1.284288,-4.575704 -2.70219,-8.506883 -6.274329,-10.75637 -1.320006,-0.831057 -2.808552,-1.042723 -4.61989,-1.448065 -1.128977,-0.252677 -2.704306,0.07197 -3.44752,0.343958 -0.823913,0.302684 -1.886744,0.515673 -2.344209,1.172369 -1.437481,2.062163 -1.659202,5.110427 -2.344473,7.929298 -0.189441,0.778933 -0.08572,1.42875 -0.275695,2.20636 -0.481542,1.972205 -0.655638,4.095221 -1.379009,5.860786 -1.548606,3.779308 -3.745971,6.452129 -7.446962,8.06741 -1.703917,0.743744 -4.878388,1.887538 -7.51549,1.172104 C 44.794069,80.513649 41.182242,74.160738 38.818455,65.770801 38.384009,64.229074 38.426871,62.559818 38.059894,60.944272 l -0.06906,-1.792817 a 9.4358353,9.4358353 0 0 1 -0.06879,-2.964921 q 0.0344,-1.654704 0.06879,-3.309408 c 0.490008,-2.169583 0.337079,-4.488392 0.896408,-6.550554 0.379677,-1.398588 0.579702,-2.883958 1.034257,-4.274873 0.740833,-2.265892 1.511035,-4.554273 2.413264,-6.619346 0.783961,-1.79361 1.431131,-3.556793 2.413529,-5.171281 2.021152,-3.322637 4.206875,-6.344179 6.482292,-9.377362 a 25.340998,25.340998 0 0 1 2.344473,-2.551113 c 0.343958,-0.343958 0.926041,-0.682889 1.103048,-1.172104 -0.363802,-0.238125 -0.619919,-0.646377 -0.9652,-0.896408 -1.344613,-0.971021 -2.669382,-1.363398 -5.036873,-1.379273 z m 26.684022,0 c -0.425979,0.246592 -1.511035,0.07461 -2.068512,0.206904 -1.550194,0.367506 -3.109119,0.484981 -4.550833,0.9652 a 34.697458,34.697458 0 0 0 -9.789584,5.10249 c -5.601493,4.112947 -9.018322,10.621962 -11.859683,17.513564 -0.751152,1.822185 -1.175014,3.814233 -1.792816,5.722937 -0.763852,2.361142 -0.796132,4.965436 -1.379009,7.515754 q -0.06879,1.2065 -0.137848,2.413265 c -0.313795,1.46976 -0.246327,4.935537 0.06906,6.34365 q 0.03439,0.654844 0.06879,1.309952 l 0.620713,3.447521 c 1.622425,5.727435 3.785393,9.703858 9.722114,11.170179 a 6.2362291,6.2362291 0 0 0 2.344209,0.06906 l 1.448064,-0.06906 c 0.995098,-0.256646 2.131483,-0.648229 2.827073,-1.241161 0.546629,-0.466195 0.740833,-1.489868 1.034256,-2.20636 0.809625,-1.969823 1.027377,-4.450821 1.585913,-6.757194 q 0.137583,-1.068652 0.275696,-2.137568 c 0.47625,-1.852084 0.695854,-3.786982 1.379008,-5.447242 1.550458,-3.76846 4.004998,-6.251046 7.722658,-7.860242 1.431396,-0.619918 4.522788,-1.600993 6.82625,-1.034256 7.62291,1.875102 11.700139,7.540625 14.066042,14.686492 0.48075,1.451768 0.65352,3.024981 1.03426,4.550833 q 0.0691,0.7239 0.13784,1.4478 c 0.30983,1.375833 0.34026,2.986617 0.34396,4.619889 0,0.497153 0.0894,0.903288 0,1.309953 -0.24606,1.118393 0.0828,2.385218 -0.13811,3.378729 -0.25083,1.127918 -0.0193,2.157941 -0.2757,3.240616 -0.40666,1.717675 -0.48842,3.49885 -0.96546,5.171281 -1.508124,5.285581 -3.074193,10.312931 -5.65388,14.548912 -1.882246,3.09086 -3.950229,5.92111 -6.06769,8.75771 a 26.401448,26.401448 0 0 1 -2.413264,2.68922 c -0.379148,0.37968 -1.047485,0.77523 -1.24116,1.30995 0.313266,0.20744 0.537104,0.54346 0.827352,0.75856 a 8.9016416,8.9016416 0 0 0 2.758016,1.37901 c 1.227402,0.36116 2.910417,0.0704 3.861329,-0.27596 2.705629,-0.98478 4.900084,-2.52148 6.482292,-4.61962 0.291035,-0.38682 0.745065,-0.70988 1.034255,-1.10332 1.38086,-1.87854 2.81596,-3.97563 3.79227,-6.20553 1.98438,-4.5339 3.128441,-9.477641 4.550841,-14.617705 0.6215,-2.245518 0.58208,-4.675981 1.10304,-7.032889 0.18521,-0.844285 0.0357,-1.757627 0.20691,-2.551112 v -1.448065 a 12.264231,12.264231 0 0 0 0,-3.999177 q -0.0344,-1.2065 -0.0688,-2.413265 c -0.41487,-1.923785 -0.38312,-4.01955 -0.82762,-5.791993 -0.57653,-2.299759 -0.63659,-4.41325 1.58591,-5.033434 a 2.54635,2.54635 0 0 1 2.41327,0.689505 c 1.3663,1.349375 1.28852,4.793191 1.79281,7.033154 q 0.0691,0.9652 0.13785,1.931458 c 0.11351,0.531283 0.09,1.31736 0.2069,1.861608 v 1.376363 c 0.19236,0.922073 0.1995,3.839368 0,4.757473 -0.0929,0.427302 0.005,1.037695 -0.069,1.379273 v 1.034256 l -0.41355,3.930121 c -0.23071,0.989277 -0.21933,2.071952 -0.4826,3.102768 -0.70776,2.769129 -1.06283,5.58086 -1.93145,8.20526 -0.49372,1.49225 -0.89324,3.056471 -1.44807,4.550831 -0.24685,0.66464 -0.64108,1.37848 -0.75856,2.13731 l 0.0691,0.069 c 1.67296,0.11695 3.18505,0.6059 4.61962,-0.27569 2.56223,-1.5748 3.5896,-4.667247 4.61989,-7.791721 1.71371,-5.196679 2.96334,-10.891571 2.96492,-17.720467 0,-1.976702 0.16722,-4.135702 -0.2069,-5.860785 l -0.0691,-1.516856 c -0.26088,-1.180836 -0.19658,-2.450042 -0.4826,-3.654425 -0.45984,-1.935692 -0.7702,-3.983038 -1.30995,-5.791994 -0.33867,-1.134798 -0.0529,-2.42861 0.55166,-3.033712 1.13321,-1.13374 3.34592,-0.796132 4.13702,0.413543 0.48816,0.74639 0.47466,1.80393 0.7583,2.758282 0.61595,2.071952 0.79798,4.443412 1.31021,6.688137 0.18521,0.812271 0.11034,1.656292 0.2757,2.413265 q 0.13811,2.137304 0.27596,4.274872 v 1.724025 l -0.0691,4.619625 h 0.0691 c 0.27702,-0.427566 0.75009,-0.746918 1.03426,-1.172104 0.67733,-1.014148 1.11125,-2.325158 1.51685,-3.585633 0.36804,-1.140883 0.34581,-2.450042 0.62045,-3.654425 l 0.0691,-1.72376 a 14.373225,14.373225 0 0 0 0,-4.137025 v -1.103263 q -0.2413,-1.998927 -0.4826,-3.998912 c -0.25109,-1.020498 -0.32253,-2.128044 -0.62072,-3.171825 -0.7784,-2.726796 -1.46976,-5.481109 -2.48205,-7.929563 -0.82021,-1.984375 -1.50813,-3.824287 -2.34447,-5.722937 a 20.696502,20.696502 0 0 0 -1.24116,-2.275417 c -0.44054,-0.723371 -0.66596,-1.490927 -1.10305,-2.206625 -1.08665,-1.778 -2.20372,-3.567377 -3.37873,-5.240337 -5.5208,-7.858125 -12.11527,-14.365552 -21.443686,-18.409973 -2.242079,-0.972079 -4.690269,-1.549135 -7.240058,-2.20636 -2.45454,-0.631561 -5.336381,-0.54319 -8.343636,-0.550598 z"
       style="fill:#063481;fill-rule:evenodd;stroke-width:0.264583" />
  </g>
</svg>
