<?xml version="1.0" encoding="UTF-8" standalone="no"?>
<svg
   width="900"
   height="900"
   viewBox="0 0 900 900"
   version="1.1"
   id="svg9"
   sodipodi:docname="logo-900x900-full-color.svg"
   inkscape:version="1.1.1 (3bf5ae0d25, 2021-09-20)"
   xmlns:inkscape="http://www.inkscape.org/namespaces/inkscape"
   xmlns:sodipodi="http://sodipodi.sourceforge.net/DTD/sodipodi-0.dtd"
   xmlns="http://www.w3.org/2000/svg"
   xmlns:svg="http://www.w3.org/2000/svg">
  <sodipodi:namedview
     id="namedview11"
     pagecolor="#ffffff"
     bordercolor="#666666"
     borderopacity="1.0"
     inkscape:pageshadow="2"
     inkscape:pageopacity="0.0"
     inkscape:pagecheckerboard="true"
     showgrid="false"
     inkscape:zoom="0.86222222"
     inkscape:cx="450.5799"
     inkscape:cy="450"
     inkscape:window-width="1920"
     inkscape:window-height="1011"
     inkscape:window-x="0"
     inkscape:window-y="0"
     inkscape:window-maximized="1"
     inkscape:current-layer="svg9" />
  <defs
     id="defs4">
    <style
       id="style2">
      .cls-1 {
        fill: #063481;
      }

      .cls-1, .cls-2 {
        fill-rule: evenodd;
      }

      .cls-2 {
        fill: #6e96cf;
      }
    </style>
  </defs>
  <path
     id="Ubi"
     class="cls-1"
     d="M209.665,521.638V656.985q0,48.058,24.846,72.9t66.366,24.847q26.8,0,47.894-10.789t33.02-32.856q11.93-22.067,11.932-54.106V521.638H347.954V656.985q0,27.139-11.933,40.7t-34.163,13.568q-22.558,0-34.491-13.568t-11.933-40.7V521.638H209.665ZM563.07,633.447q18.306-4.245,29.587-17.981t11.279-35.308q0-27.785-18.8-43.154t-53.78-15.366h-97.1V752.447H533.32q36.94,0,56.394-16.836t19.453-45.933q0-20.919-12.587-36.452t-33.51-19.779h0Zm-82.712-74.866h40.866q18.3,0,27.135,7.846t8.826,22.231q0,14.389-8.99,22.067t-26.317,7.683h-41.52V558.581Zm43.808,156.27H480.358V651.427h43.481q18.306,0,28.279,8.337t9.971,23.7q0,15.37-9.807,23.375t-28.116,8.01h0ZM641.528,521.638V752.447h46.1V521.638h-46.1Z" />
  <path
     id="coach"
     class="cls-2"
     d="M254.437,807.983A37.235,37.235,0,0,0,236,812.46a31.549,31.549,0,0,0-12.576,12.906,45.073,45.073,0,0,0,0,39.441A31.616,31.616,0,0,0,236,877.646a37.214,37.214,0,0,0,18.437,4.478q13.827,0,22.914-7.309T288.545,855H275.9a18.737,18.737,0,0,1-7.178,12.247q-5.861,4.479-14.551,4.477a23.27,23.27,0,0,1-11.523-2.9,21.055,21.055,0,0,1-8.363-8.889q-3.161-5.991-3.16-14.815t3.16-14.815a21.079,21.079,0,0,1,8.363-8.889,23.291,23.291,0,0,1,11.523-2.9q8.691,0,14.551,4.411a18.5,18.5,0,0,1,7.178,12.182h12.642a31.251,31.251,0,0,0-11.194-19.754q-9.087-7.374-22.914-7.374h0Zm98.371,0a38.357,38.357,0,0,0-18.634,4.477A32.48,32.48,0,0,0,321.2,825.366a43.385,43.385,0,0,0,0,39.441,32.559,32.559,0,0,0,12.972,12.839,41.009,41.009,0,0,0,37.268,0,32.135,32.135,0,0,0,12.9-12.839,43.931,43.931,0,0,0,0-39.441,32.06,32.06,0,0,0-12.9-12.906,38.373,38.373,0,0,0-18.634-4.477h0Zm0,10.535a25.075,25.075,0,0,1,11.918,2.9,21.8,21.8,0,0,1,8.823,8.889q3.359,5.994,3.358,14.815,0,8.691-3.358,14.683a21.783,21.783,0,0,1-8.823,8.89,25.963,25.963,0,0,1-23.836,0,21.765,21.765,0,0,1-8.823-8.89q-3.359-5.99-3.359-14.683,0-8.821,3.359-14.815a21.78,21.78,0,0,1,8.823-8.889,25.061,25.061,0,0,1,11.918-2.9h0Zm97.317-10.535a32.776,32.776,0,0,0-17.119,4.477,30.883,30.883,0,0,0-11.787,12.906,47.572,47.572,0,0,0,0,39.441,30.935,30.935,0,0,0,11.787,12.839,32.758,32.758,0,0,0,17.119,4.478q10.535,0,17.844-5.268a27.444,27.444,0,0,0,10.206-14.091V881.2h11.984V808.9H478.175v18.437a27.464,27.464,0,0,0-10.206-14.091q-7.308-5.265-17.844-5.267h0Zm3.424,10.666a24.992,24.992,0,0,1,12.708,3.227,22.4,22.4,0,0,1,8.758,9.284,29.745,29.745,0,0,1,3.16,13.959,29.345,29.345,0,0,1-3.16,13.893,22.9,22.9,0,0,1-8.758,9.284,24.58,24.58,0,0,1-12.708,3.293q-11.061,0-17.712-7.046t-6.65-19.424q0-12.376,6.65-19.424t17.712-7.046h0Zm103.508-10.666a37.232,37.232,0,0,0-18.437,4.477,31.549,31.549,0,0,0-12.576,12.906,45.073,45.073,0,0,0,0,39.441,31.616,31.616,0,0,0,12.576,12.839,37.211,37.211,0,0,0,18.437,4.478q13.827,0,22.914-7.309T591.164,855H578.522a18.731,18.731,0,0,1-7.177,12.247q-5.861,4.479-14.552,4.477a23.266,23.266,0,0,1-11.522-2.9,21.043,21.043,0,0,1-8.363-8.889q-3.16-5.991-3.16-14.815t3.16-14.815a21.066,21.066,0,0,1,8.363-8.889,23.287,23.287,0,0,1,11.522-2.9q8.692,0,14.552,4.411a18.491,18.491,0,0,1,7.177,12.182h12.642a31.245,31.245,0,0,0-11.193-19.754q-9.087-7.374-22.914-7.374h0Zm103.638-.264a28.437,28.437,0,0,0-16.264,4.741,24.636,24.636,0,0,0-9.811,13.564V783.752H622.637V881.2H634.62V842.88q0-12.246,5.926-18.634t15.8-6.387q9.481,0,15.013,5.795t5.531,16.593V881.2h11.984V839.193q0-15.274-7.77-23.375t-20.412-8.1h0Z" />
  <path
     id="Color_Fill_1"
     data-name="Color Fill 1"
     class="cls-1"
     d="M651.739,314.593a51.592,51.592,0,0,1-1.824,8.6c-1.639,5.966-2.211,11.944-3.909,17.461-1.224,3.975-1.58,7.621-2.867,11.466-6.587,19.687-14.62,38.057-34.4,44.563-5.072,1.669-15.957,2.048-21.63.521-2.213-.6-4.619-1.613-7.036-1.824-1.229,4.682-6.534,11-9.121,14.854-9.981,14.855-23.574,28.322-42.218,34.4l-8.339,1.824a27.783,27.783,0,0,1-9.9,0c-3.964-.872-7.068-0.593-10.424-1.824-6.074-2.228-10.721-5.62-15.375-9.121-2.567-1.931-5.8-4.371-7.3-7.3a0.89,0.89,0,0,0-.522.261c-1.985.5-3.847,2.134-5.472,3.127-3.719,2.273-8.26,4-12.249,5.733-9.667,4.2-20.348,5.617-31.793,8.339l-7.558.522c-3.907.846-13.033,1.2-17.2,0.26h-4.431c-3.023-.687-6.453-0.27-9.642-1.042-11.761-2.848-22.206-4.419-32.315-8.6-8.718-3.606-17.1-6.528-24.757-11.206-8.6-5.25-16.793-10.83-24.757-16.679-3.35-2.46-6.288-5.544-9.643-8.078q-1.172-1.3-2.345-2.606a85.58,85.58,0,0,1-14.594-14.855c-3.132-4.146-7.314-7.76-10.424-11.987-5.913-8.038-11.253-16.138-16.679-24.758-5.933-9.426-12.022-19.677-16.678-30.23C231.744,306,227.3,295.273,223.568,284.1c-2.245-6.729-3.781-13.722-5.733-20.588-2.184-7.681-2.292-15.918-4.17-23.975q-0.26-4.3-.521-8.6c-0.849-3.9-1.2-15.657-.26-19.806v-4.17c1.188-5.253.716-10.83,2.084-15.9,3.96-14.658,8.685-27.538,19.546-35.181,3.955-2.783,8.4-4.29,13.29-6.254a62.747,62.747,0,0,1,2.346-10.946c1.452-5.085,1.947-10.174,3.388-14.854,1.5-4.884,2.077-9.377,3.648-14.073,5.805-17.354,13.926-34.044,30.23-40.914,10.427-4.394,21.812-1.988,32.054.261,0.524-2.023,1.884-3.623,2.867-5.212,2.435-3.937,4.7-7.593,7.3-11.206,10.29-14.334,23.125-27.115,41.7-33.1,21.039-6.777,43.1,4.507,51.078,16.679,5.676-3.109,11.525-6.428,17.721-9.121,6.175-2.683,13.036-4.328,19.806-6.254l15.636-2.606,6.515-.261c3.633-.783,13.058-0.816,16.679,0h3.909l15.115,2.085c6.551,1.706,13.074,2.873,19.285,4.951,6.1,2.041,12.145,4.836,17.721,7.3,36.5,16.108,62.473,42.78,84.174,73.751a259.23,259.23,0,0,1,25.018,43.521c4.392,9.959,8.073,20.23,11.988,30.751,3.566,9.581,5.135,20.119,7.818,30.49,1.007,3.891.946,7.991,1.824,11.727,0.835,3.553.273,7.3,1.043,10.685v4.691a52.081,52.081,0,0,1,0,15.115v4.43q-0.781,6.514-1.564,13.03c-2.484,9.867-4.665,18.836-9.382,26.321-0.933,1.481-2.366,2.8-3.387,4.17C668.2,306.581,660.031,313.474,651.739,314.593ZM382.015,37.572c-0.726.454-1.929,0.243-2.867,0.521l-7.036,2.345c-6.213,2.707-10.814,7.365-15.9,11.206a12.341,12.341,0,0,0-2.085,2.606c-1.539,2.038-3.932,3.655-5.472,5.733-2.64,3.561-4.88,7.108-7.3,10.945-11.105,17.626-17.138,39.95-23.454,62.544-2.146,7.677-2.617,15.8-4.431,23.715-1.1,4.8-.546,9.894-1.563,14.594v3.909c-0.883,4.109-1.2,16.257-.261,20.587v4.952c0.468,3.113.067,6.629,0.782,9.9,1.761,8.069,2.475,16.57,4.17,24.236,1.235,5.589-4.319,10.017-8.079,10.945a9.414,9.414,0,0,1-8.6-2.606c-5.46-5.3-5.051-19.956-7.036-28.927q-0.261-4.169-.521-8.339c-0.569-2.7.125-6.016-.522-9.121-0.817-3.924-.851-13.808,0-17.721v-4.952a69.513,69.513,0,0,1,.782-7.557l0.261-5.212q1.433-9.772,2.866-19.545c4.948-19.3,8.463-38.1,15.637-54.988a31.741,31.741,0,0,1-4.952-1.042,19.646,19.646,0,0,0-13.551,2.345c-8.86,5.467-12.272,16.047-16.158,26.582-4.916,13.33-7.151,29.011-10.684,43.781q-0.522,6.384-1.043,12.77v5.733c-0.566,2.651-.26,6.547-0.26,9.642,0,5.332-.485,11.245.521,15.9q0.261,4.821.521,9.642,1.173,8.339,2.345,16.679c1.761,7.012,3.313,14.406,4.952,21.109a10.321,10.321,0,0,1-3.649,10.163,13.339,13.339,0,0,1-3.127,1.564,11.067,11.067,0,0,1-5.994-.261c-7.49-2.792-6.693-8.593-8.86-16.418-1.971-7.116-2.687-15.294-4.43-22.933-0.7-3.07-.418-6.259-1.043-9.121q-0.52-8.078-1.042-16.157v-6.515q0.131-8.73.26-17.461h-0.521c-1.337,2.106-3.362,3.854-4.691,5.994-1.955,3.15-3.222,7.228-4.43,10.946-2.454,7.555-3.125,17.755-3.127,27.363,0,4.585-.349,9.665.521,13.551l0.261,5.734q1.3,8.338,2.606,16.678c1.687,6.219,2.664,12.7,4.691,18.764,3.1,9.281,6.444,18.593,10.163,27.1,22.74,52.022,55.7,94.686,108.15,117.011,7.452,3.172,15.723,5.428,24.236,7.818l13.291,2.085h2.867c4.015,0.862,11.357,1.217,15.636.26,3.695-.825,7.425.067,10.945-0.781,7.04-1.7,14.013-2.6,20.327-4.952,9.385-3.494,18.411-7.67,26.061-13.03,4.151-2.908,7.954-6.334,11.987-9.382A58.061,58.061,0,0,0,494.6,387.562l3.388-3.388c2.4-3.191,4.908-6.539,7.037-9.9,10.557-16.684,17.757-35.278,24.5-56.029,2.985-9.192,3.427-19.216,5.733-29.188l0.522-7.818c0.582-2.692-.141-6.023.521-9.121,0.793-3.715.535-11.563-.261-15.115v-3.388l-2.085-14.333c-4.854-17.294-10.213-32.152-23.714-40.654-4.989-3.141-10.615-3.941-17.461-5.473-4.267-.955-10.221.272-13.03,1.3-3.114,1.144-7.131,1.949-8.86,4.431-5.433,7.794-6.271,19.315-8.861,29.969-0.716,2.944-.324,5.4-1.042,8.339-1.82,7.454-2.478,15.478-5.212,22.151-5.853,14.284-14.158,24.386-28.146,30.491-6.44,2.811-18.438,7.134-28.405,4.43-31.881-8.648-45.532-32.659-54.466-64.369-1.642-5.827-1.48-12.136-2.867-18.242l-0.261-6.776a35.663,35.663,0,0,1-.26-11.206q0.13-6.254.26-12.508c1.852-8.2,1.274-16.964,3.388-24.758,1.435-5.286,2.191-10.9,3.909-16.157,2.8-8.564,5.711-17.213,9.121-25.018,2.963-6.779,5.409-13.443,9.122-19.545,7.639-12.558,15.9-23.978,24.5-35.442a95.777,95.777,0,0,1,8.861-9.642c1.3-1.3,3.5-2.581,4.169-4.43-1.375-.9-2.343-2.443-3.648-3.388C395.97,39.115,390.963,37.632,382.015,37.572Zm100.853,0c-1.61.932-5.711,0.282-7.818,0.782-5.859,1.389-11.751,1.833-17.2,3.648a131.14,131.14,0,0,0-37,19.285c-21.171,15.545-34.085,40.146-44.824,66.193-2.839,6.887-4.441,14.416-6.776,21.63-2.887,8.924-3.009,18.767-5.212,28.406q-0.26,4.56-.521,9.121c-1.186,5.555-.931,18.654.261,23.976q0.13,2.475.26,4.951l2.346,13.03c6.132,21.647,14.307,36.676,36.745,42.218a23.57,23.57,0,0,0,8.86.261l5.473-.261c3.761-.97,8.056-2.45,10.685-4.691,2.066-1.762,2.8-5.631,3.909-8.339,3.06-7.445,3.883-16.822,5.994-25.539q0.52-4.039,1.042-8.079c1.8-7,2.63-14.313,5.212-20.588,5.86-14.243,15.137-23.626,29.188-29.708,5.41-2.343,17.094-6.051,25.8-3.909,28.811,7.087,44.221,28.5,53.163,55.508,1.817,5.487,2.47,11.433,3.909,17.2q0.261,2.736.521,5.472c1.171,5.2,1.286,11.288,1.3,17.461,0,1.879.338,3.414,0,4.951-0.93,4.227.313,9.015-.522,12.77-0.948,4.263-.073,8.156-1.042,12.248-1.537,6.492-1.846,13.224-3.649,19.545-5.7,19.977-11.619,38.978-21.369,54.988-7.114,11.682-14.93,22.379-22.933,33.1a99.785,99.785,0,0,1-9.121,10.164c-1.433,1.435-3.959,2.93-4.691,4.951,1.184,0.784,2.03,2.054,3.127,2.867a33.644,33.644,0,0,0,10.424,5.212c4.639,1.365,11,.266,14.594-1.043,10.226-3.722,18.52-9.53,24.5-17.46,1.1-1.462,2.816-2.683,3.909-4.17,5.219-7.1,10.643-15.026,14.333-23.454,7.5-17.136,11.824-35.821,17.2-55.248,2.349-8.487,2.2-17.673,4.169-26.581,0.7-3.191.135-6.643,0.782-9.642v-5.473a46.353,46.353,0,0,0,0-15.115q-0.13-4.56-.26-9.121c-1.568-7.271-1.448-15.192-3.128-21.891-2.179-8.692-2.406-16.68,5.994-19.024a9.624,9.624,0,0,1,9.121,2.606c5.164,5.1,4.87,18.116,6.776,26.582q0.261,3.648.521,7.3c0.429,2.008.34,4.979,0.782,7.036V266.9c0.727,3.485.754,14.511,0,17.981-0.351,1.615.02,3.922-.261,5.213v3.909l-1.563,14.854c-0.872,3.739-.829,7.831-1.824,11.727-2.675,10.466-4.017,21.093-7.3,31.012-1.866,5.64-3.376,11.552-5.473,17.2-0.933,2.512-2.423,5.21-2.867,8.078l0.261,0.261c6.323,0.442,12.038,2.29,17.46-1.042,9.684-5.952,13.567-17.64,17.461-29.449,6.477-19.641,11.2-41.165,11.206-66.975,0-7.471.632-15.631-.782-22.151l-0.261-5.733c-0.986-4.463-.743-9.26-1.824-13.812-1.738-7.316-2.911-15.054-4.951-21.891-1.28-4.289-.2-9.179,2.085-11.466,4.283-4.285,12.646-3.009,15.636,1.563,1.845,2.821,1.794,6.818,2.866,10.425,2.328,7.831,3.016,16.794,4.952,25.278,0.7,3.07.417,6.26,1.042,9.121q0.522,8.078,1.043,16.157v6.516l-0.261,17.46h0.261c1.047-1.616,2.835-2.823,3.909-4.43,2.56-3.833,4.2-8.788,5.733-13.552,1.391-4.312,1.307-9.26,2.345-13.812l0.261-6.515a54.324,54.324,0,0,0,0-15.636v-4.17q-0.912-7.555-1.824-15.114c-0.949-3.857-1.219-8.043-2.346-11.988-2.942-10.306-5.555-20.716-9.381-29.97-3.1-7.5-5.7-14.454-8.861-21.63a78.223,78.223,0,0,0-4.691-8.6c-1.665-2.734-2.517-5.635-4.169-8.34-4.107-6.72-8.329-13.483-12.77-19.806-20.866-29.7-45.79-54.295-81.047-69.581-8.474-3.674-17.727-5.855-27.364-8.339C505.126,37.266,494.234,37.6,482.868,37.572Z" />
</svg>
